<mxfile host="app.diagrams.net" agent="Mozilla/5.0 (Windows NT 10.0; Win64; x64) AppleWebKit/537.36 (KHTML, like Gecko) Chrome/132.0.0.0 Safari/537.36" version="26.0.14">
  <diagram id="C5RBs43oDa-KdzZeNtuy" name="Page-1">
    <mxGraphModel dx="1818" dy="558" grid="1" gridSize="10" guides="1" tooltips="1" connect="1" arrows="1" fold="1" page="1" pageScale="1" pageWidth="827" pageHeight="1169" math="0" shadow="0">
      <root>
        <mxCell id="WIyWlLk6GJQsqaUBKTNV-0" />
        <mxCell id="WIyWlLk6GJQsqaUBKTNV-1" parent="WIyWlLk6GJQsqaUBKTNV-0" />
        <mxCell id="WIyWlLk6GJQsqaUBKTNV-2" value="" style="rounded=0;html=1;jettySize=auto;orthogonalLoop=1;fontSize=11;endArrow=block;endFill=0;endSize=8;strokeWidth=1;shadow=0;labelBackgroundColor=none;edgeStyle=orthogonalEdgeStyle;" parent="WIyWlLk6GJQsqaUBKTNV-1" source="WIyWlLk6GJQsqaUBKTNV-3" target="WIyWlLk6GJQsqaUBKTNV-6" edge="1">
          <mxGeometry relative="1" as="geometry" />
        </mxCell>
        <mxCell id="WIyWlLk6GJQsqaUBKTNV-3" value="商品购买页" style="rounded=1;whiteSpace=wrap;html=1;fontSize=12;glass=0;strokeWidth=1;shadow=0;" parent="WIyWlLk6GJQsqaUBKTNV-1" vertex="1">
          <mxGeometry x="125" y="80" width="120" height="40" as="geometry" />
        </mxCell>
        <mxCell id="WIyWlLk6GJQsqaUBKTNV-5" value="No" style="edgeStyle=orthogonalEdgeStyle;rounded=0;html=1;jettySize=auto;orthogonalLoop=1;fontSize=11;endArrow=block;endFill=0;endSize=8;strokeWidth=1;shadow=0;labelBackgroundColor=none;entryX=0;entryY=0.5;entryDx=0;entryDy=0;" parent="WIyWlLk6GJQsqaUBKTNV-1" source="WIyWlLk6GJQsqaUBKTNV-6" target="ZsQF3MbV9kmO2ybGHAxm-5" edge="1">
          <mxGeometry y="10" relative="1" as="geometry">
            <mxPoint as="offset" />
            <mxPoint x="320" y="210" as="targetPoint" />
          </mxGeometry>
        </mxCell>
        <mxCell id="WIyWlLk6GJQsqaUBKTNV-6" value="秒杀是否开始" style="rhombus;whiteSpace=wrap;html=1;shadow=0;fontFamily=Helvetica;fontSize=12;align=center;strokeWidth=1;spacing=6;spacingTop=-4;" parent="WIyWlLk6GJQsqaUBKTNV-1" vertex="1">
          <mxGeometry x="135" y="175" width="100" height="80" as="geometry" />
        </mxCell>
        <mxCell id="WIyWlLk6GJQsqaUBKTNV-8" value="购买&lt;div&gt;&lt;br&gt;&lt;/div&gt;" style="rounded=0;html=1;jettySize=auto;orthogonalLoop=1;fontSize=11;endArrow=block;endFill=0;endSize=8;strokeWidth=1;shadow=0;labelBackgroundColor=none;edgeStyle=orthogonalEdgeStyle;exitX=0.5;exitY=1;exitDx=0;exitDy=0;" parent="WIyWlLk6GJQsqaUBKTNV-1" source="ZsQF3MbV9kmO2ybGHAxm-10" target="WIyWlLk6GJQsqaUBKTNV-11" edge="1">
          <mxGeometry x="-0.1429" y="20" relative="1" as="geometry">
            <mxPoint as="offset" />
            <mxPoint x="220" y="370" as="sourcePoint" />
          </mxGeometry>
        </mxCell>
        <mxCell id="ZsQF3MbV9kmO2ybGHAxm-14" value="" style="edgeStyle=orthogonalEdgeStyle;rounded=0;orthogonalLoop=1;jettySize=auto;html=1;" edge="1" parent="WIyWlLk6GJQsqaUBKTNV-1" source="WIyWlLk6GJQsqaUBKTNV-11" target="ZsQF3MbV9kmO2ybGHAxm-13">
          <mxGeometry relative="1" as="geometry" />
        </mxCell>
        <mxCell id="WIyWlLk6GJQsqaUBKTNV-11" value="生成订单" style="rounded=1;whiteSpace=wrap;html=1;fontSize=12;glass=0;strokeWidth=1;shadow=0;" parent="WIyWlLk6GJQsqaUBKTNV-1" vertex="1">
          <mxGeometry x="330" y="450" width="120" height="40" as="geometry" />
        </mxCell>
        <mxCell id="ZsQF3MbV9kmO2ybGHAxm-3" value="" style="edgeStyle=orthogonalEdgeStyle;rounded=0;orthogonalLoop=1;jettySize=auto;html=1;" edge="1" parent="WIyWlLk6GJQsqaUBKTNV-1" source="ZsQF3MbV9kmO2ybGHAxm-0" target="WIyWlLk6GJQsqaUBKTNV-3">
          <mxGeometry relative="1" as="geometry" />
        </mxCell>
        <mxCell id="ZsQF3MbV9kmO2ybGHAxm-4" value="点击" style="edgeLabel;html=1;align=center;verticalAlign=middle;resizable=0;points=[];" vertex="1" connectable="0" parent="ZsQF3MbV9kmO2ybGHAxm-3">
          <mxGeometry relative="1" as="geometry">
            <mxPoint as="offset" />
          </mxGeometry>
        </mxCell>
        <mxCell id="ZsQF3MbV9kmO2ybGHAxm-0" value="Actor" style="shape=umlActor;verticalLabelPosition=bottom;verticalAlign=top;html=1;outlineConnect=0;" vertex="1" parent="WIyWlLk6GJQsqaUBKTNV-1">
          <mxGeometry x="-15" y="70" width="30" height="60" as="geometry" />
        </mxCell>
        <mxCell id="ZsQF3MbV9kmO2ybGHAxm-8" value="" style="edgeStyle=orthogonalEdgeStyle;rounded=0;orthogonalLoop=1;jettySize=auto;html=1;" edge="1" parent="WIyWlLk6GJQsqaUBKTNV-1" source="ZsQF3MbV9kmO2ybGHAxm-5" target="ZsQF3MbV9kmO2ybGHAxm-7">
          <mxGeometry relative="1" as="geometry" />
        </mxCell>
        <mxCell id="ZsQF3MbV9kmO2ybGHAxm-9" value="yes" style="edgeLabel;html=1;align=center;verticalAlign=middle;resizable=0;points=[];" vertex="1" connectable="0" parent="ZsQF3MbV9kmO2ybGHAxm-8">
          <mxGeometry x="0.0333" y="-1" relative="1" as="geometry">
            <mxPoint y="1" as="offset" />
          </mxGeometry>
        </mxCell>
        <mxCell id="ZsQF3MbV9kmO2ybGHAxm-11" value="" style="edgeStyle=orthogonalEdgeStyle;rounded=0;orthogonalLoop=1;jettySize=auto;html=1;" edge="1" parent="WIyWlLk6GJQsqaUBKTNV-1" source="ZsQF3MbV9kmO2ybGHAxm-5" target="ZsQF3MbV9kmO2ybGHAxm-10">
          <mxGeometry relative="1" as="geometry" />
        </mxCell>
        <mxCell id="ZsQF3MbV9kmO2ybGHAxm-12" value="no" style="edgeLabel;html=1;align=center;verticalAlign=middle;resizable=0;points=[];" vertex="1" connectable="0" parent="ZsQF3MbV9kmO2ybGHAxm-11">
          <mxGeometry x="-0.0714" relative="1" as="geometry">
            <mxPoint as="offset" />
          </mxGeometry>
        </mxCell>
        <mxCell id="ZsQF3MbV9kmO2ybGHAxm-5" value="已抢完？" style="rhombus;whiteSpace=wrap;html=1;" vertex="1" parent="WIyWlLk6GJQsqaUBKTNV-1">
          <mxGeometry x="340" y="170" width="100" height="90" as="geometry" />
        </mxCell>
        <mxCell id="ZsQF3MbV9kmO2ybGHAxm-7" value="秒杀结束" style="rounded=1;whiteSpace=wrap;html=1;" vertex="1" parent="WIyWlLk6GJQsqaUBKTNV-1">
          <mxGeometry x="510" y="180" width="120" height="60" as="geometry" />
        </mxCell>
        <mxCell id="ZsQF3MbV9kmO2ybGHAxm-10" value="展示购买按钮" style="rounded=1;whiteSpace=wrap;html=1;" vertex="1" parent="WIyWlLk6GJQsqaUBKTNV-1">
          <mxGeometry x="330" y="320" width="120" height="60" as="geometry" />
        </mxCell>
        <mxCell id="ZsQF3MbV9kmO2ybGHAxm-18" value="" style="edgeStyle=orthogonalEdgeStyle;rounded=0;orthogonalLoop=1;jettySize=auto;html=1;" edge="1" parent="WIyWlLk6GJQsqaUBKTNV-1" source="ZsQF3MbV9kmO2ybGHAxm-13" target="ZsQF3MbV9kmO2ybGHAxm-17">
          <mxGeometry relative="1" as="geometry" />
        </mxCell>
        <mxCell id="ZsQF3MbV9kmO2ybGHAxm-19" value="yes" style="edgeLabel;html=1;align=center;verticalAlign=middle;resizable=0;points=[];" vertex="1" connectable="0" parent="ZsQF3MbV9kmO2ybGHAxm-18">
          <mxGeometry x="-0.0632" y="1" relative="1" as="geometry">
            <mxPoint y="1" as="offset" />
          </mxGeometry>
        </mxCell>
        <mxCell id="ZsQF3MbV9kmO2ybGHAxm-21" value="" style="edgeStyle=orthogonalEdgeStyle;rounded=0;orthogonalLoop=1;jettySize=auto;html=1;" edge="1" parent="WIyWlLk6GJQsqaUBKTNV-1" source="ZsQF3MbV9kmO2ybGHAxm-13" target="ZsQF3MbV9kmO2ybGHAxm-20">
          <mxGeometry relative="1" as="geometry" />
        </mxCell>
        <mxCell id="ZsQF3MbV9kmO2ybGHAxm-22" value="no" style="edgeLabel;html=1;align=center;verticalAlign=middle;resizable=0;points=[];" vertex="1" connectable="0" parent="ZsQF3MbV9kmO2ybGHAxm-21">
          <mxGeometry x="0.0286" y="3" relative="1" as="geometry">
            <mxPoint y="1" as="offset" />
          </mxGeometry>
        </mxCell>
        <mxCell id="ZsQF3MbV9kmO2ybGHAxm-13" value="创建订单且锁定库存成功？" style="rhombus;whiteSpace=wrap;html=1;" vertex="1" parent="WIyWlLk6GJQsqaUBKTNV-1">
          <mxGeometry x="100" y="425" width="170" height="90" as="geometry" />
        </mxCell>
        <mxCell id="ZsQF3MbV9kmO2ybGHAxm-15" style="edgeStyle=orthogonalEdgeStyle;rounded=0;orthogonalLoop=1;jettySize=auto;html=1;exitX=0.5;exitY=1;exitDx=0;exitDy=0;" edge="1" parent="WIyWlLk6GJQsqaUBKTNV-1" source="ZsQF3MbV9kmO2ybGHAxm-13" target="ZsQF3MbV9kmO2ybGHAxm-13">
          <mxGeometry relative="1" as="geometry" />
        </mxCell>
        <mxCell id="ZsQF3MbV9kmO2ybGHAxm-24" value="" style="edgeStyle=orthogonalEdgeStyle;rounded=0;orthogonalLoop=1;jettySize=auto;html=1;" edge="1" parent="WIyWlLk6GJQsqaUBKTNV-1" source="ZsQF3MbV9kmO2ybGHAxm-17" target="ZsQF3MbV9kmO2ybGHAxm-23">
          <mxGeometry relative="1" as="geometry" />
        </mxCell>
        <mxCell id="ZsQF3MbV9kmO2ybGHAxm-17" value="支付倒计时" style="rounded=1;whiteSpace=wrap;html=1;" vertex="1" parent="WIyWlLk6GJQsqaUBKTNV-1">
          <mxGeometry x="125" y="610" width="120" height="60" as="geometry" />
        </mxCell>
        <mxCell id="ZsQF3MbV9kmO2ybGHAxm-20" value="下单失败" style="whiteSpace=wrap;html=1;" vertex="1" parent="WIyWlLk6GJQsqaUBKTNV-1">
          <mxGeometry x="-70" y="440" width="120" height="60" as="geometry" />
        </mxCell>
        <mxCell id="ZsQF3MbV9kmO2ybGHAxm-26" value="" style="edgeStyle=orthogonalEdgeStyle;rounded=0;orthogonalLoop=1;jettySize=auto;html=1;" edge="1" parent="WIyWlLk6GJQsqaUBKTNV-1" source="ZsQF3MbV9kmO2ybGHAxm-23" target="ZsQF3MbV9kmO2ybGHAxm-25">
          <mxGeometry relative="1" as="geometry" />
        </mxCell>
        <mxCell id="ZsQF3MbV9kmO2ybGHAxm-30" value="no&lt;div&gt;&lt;br&gt;&lt;/div&gt;" style="edgeLabel;html=1;align=center;verticalAlign=middle;resizable=0;points=[];" vertex="1" connectable="0" parent="ZsQF3MbV9kmO2ybGHAxm-26">
          <mxGeometry x="-0.1667" y="-1" relative="1" as="geometry">
            <mxPoint as="offset" />
          </mxGeometry>
        </mxCell>
        <mxCell id="ZsQF3MbV9kmO2ybGHAxm-28" value="" style="edgeStyle=orthogonalEdgeStyle;rounded=0;orthogonalLoop=1;jettySize=auto;html=1;" edge="1" parent="WIyWlLk6GJQsqaUBKTNV-1" source="ZsQF3MbV9kmO2ybGHAxm-23" target="ZsQF3MbV9kmO2ybGHAxm-27">
          <mxGeometry relative="1" as="geometry" />
        </mxCell>
        <mxCell id="ZsQF3MbV9kmO2ybGHAxm-29" value="yes" style="edgeLabel;html=1;align=center;verticalAlign=middle;resizable=0;points=[];" vertex="1" connectable="0" parent="ZsQF3MbV9kmO2ybGHAxm-28">
          <mxGeometry x="-0.0333" y="2" relative="1" as="geometry">
            <mxPoint as="offset" />
          </mxGeometry>
        </mxCell>
        <mxCell id="ZsQF3MbV9kmO2ybGHAxm-23" value="按时支付？" style="rhombus;whiteSpace=wrap;html=1;rounded=1;" vertex="1" parent="WIyWlLk6GJQsqaUBKTNV-1">
          <mxGeometry x="145" y="710" width="80" height="80" as="geometry" />
        </mxCell>
        <mxCell id="ZsQF3MbV9kmO2ybGHAxm-34" value="" style="edgeStyle=orthogonalEdgeStyle;rounded=0;orthogonalLoop=1;jettySize=auto;html=1;" edge="1" parent="WIyWlLk6GJQsqaUBKTNV-1" source="ZsQF3MbV9kmO2ybGHAxm-25" target="ZsQF3MbV9kmO2ybGHAxm-33">
          <mxGeometry relative="1" as="geometry" />
        </mxCell>
        <mxCell id="ZsQF3MbV9kmO2ybGHAxm-25" value="释放库存" style="whiteSpace=wrap;html=1;rounded=1;" vertex="1" parent="WIyWlLk6GJQsqaUBKTNV-1">
          <mxGeometry x="330" y="720" width="120" height="60" as="geometry" />
        </mxCell>
        <mxCell id="ZsQF3MbV9kmO2ybGHAxm-32" value="" style="edgeStyle=orthogonalEdgeStyle;rounded=0;orthogonalLoop=1;jettySize=auto;html=1;" edge="1" parent="WIyWlLk6GJQsqaUBKTNV-1" source="ZsQF3MbV9kmO2ybGHAxm-27" target="ZsQF3MbV9kmO2ybGHAxm-31">
          <mxGeometry relative="1" as="geometry" />
        </mxCell>
        <mxCell id="ZsQF3MbV9kmO2ybGHAxm-27" value="扣减库存" style="whiteSpace=wrap;html=1;rounded=1;" vertex="1" parent="WIyWlLk6GJQsqaUBKTNV-1">
          <mxGeometry x="-60" y="720" width="120" height="60" as="geometry" />
        </mxCell>
        <mxCell id="ZsQF3MbV9kmO2ybGHAxm-31" value="购买成功" style="rounded=1;whiteSpace=wrap;html=1;" vertex="1" parent="WIyWlLk6GJQsqaUBKTNV-1">
          <mxGeometry x="-60" y="830" width="120" height="60" as="geometry" />
        </mxCell>
        <mxCell id="ZsQF3MbV9kmO2ybGHAxm-33" value="购买失败" style="whiteSpace=wrap;html=1;rounded=1;" vertex="1" parent="WIyWlLk6GJQsqaUBKTNV-1">
          <mxGeometry x="330" y="830" width="120" height="60" as="geometry" />
        </mxCell>
      </root>
    </mxGraphModel>
  </diagram>
</mxfile>
